<?xml version="1.0" encoding="UTF-8" standalone="no"?>
<!-- Created with Inkscape (http://www.inkscape.org/) -->

<svg
   xmlns:dc="http://purl.org/dc/elements/1.1/"
   xmlns:cc="http://creativecommons.org/ns#"
   xmlns:rdf="http://www.w3.org/1999/02/22-rdf-syntax-ns#"
   xmlns:svg="http://www.w3.org/2000/svg"
   xmlns="http://www.w3.org/2000/svg"
   xmlns:sodipodi="http://sodipodi.sourceforge.net/DTD/sodipodi-0.dtd"
   xmlns:inkscape="http://www.inkscape.org/namespaces/inkscape"
   width="744.09448819"
   height="1052.3622047"
   id="svg5570"
   version="1.1"
   inkscape:version="0.48.4 r9939"
   sodipodi:docname="round_gauge.svg">
  <defs
     id="defs5572" />
  <sodipodi:namedview
     id="base"
     pagecolor="#000000"
     bordercolor="#666666"
     borderopacity="1.0"
     inkscape:pageopacity="1"
     inkscape:pageshadow="2"
     inkscape:zoom="5.6"
     inkscape:cx="-2.6928242"
     inkscape:cy="61.757678"
     inkscape:document-units="px"
     inkscape:current-layer="layer1"
     showgrid="false"
     inkscape:window-width="1535"
     inkscape:window-height="876"
     inkscape:window-x="65"
     inkscape:window-y="24"
     inkscape:window-maximized="1" />
  <metadata
     id="metadata5575">
    <rdf:RDF>
      <cc:Work
         rdf:about="">
        <dc:format>image/svg+xml</dc:format>
        <dc:type
           rdf:resource="http://purl.org/dc/dcmitype/StillImage" />
        <dc:title />
      </cc:Work>
    </rdf:RDF>
  </metadata>
  <g
     inkscape:label="Layer 1"
     inkscape:groupmode="layer"
     id="layer1">
    <path
       inkscape:connector-curvature="0"
       id="path2374"
       style="fill:#ffffff;fill-opacity:1;fill-rule:nonzero;stroke:none"
       d="m 60.015922,963.42245 2.542258,-9.47966 c -0.6317,-0.19983 -1.26958,-0.29974 -1.91078,-0.43961 l -2.0419,9.59755 c 0.47294,0.19982 0.9439,0.21981 1.41042,0.3397 m -43.965951,17.41068 -8.2372452,-5.3453 c -0.350892,0.53953 -0.689846,1.09904 -1.019512,1.67853 l 8.5052232,4.90568 c 0.243436,-0.41963 0.493726,-0.81928 0.751534,-1.23891 m 41.906807,-17.87827 2.04212,-9.60155 c -0.63922,-0.19982 -1.28374,-0.23979 -1.93156,-0.3397 l -1.53646,9.69147 c 0.47802,0 0.95362,0.19983 1.4259,0.25977 m -38.11177,12.82871 -7.297331,-6.56422 c -0.432922,0.47958 -0.857222,0.97914 -1.27113,1.49868 l 7.63142,6.17257 c 0.305566,-0.37967 0.61843,-0.73935 0.93704,-1.09903 m -4.876458,6.85796 -8.5058868,-4.90768 c -0.321486,0.55951 -0.633464,1.139 -0.93306,1.71849 l 8.7515338,4.45408 c 0.221326,-0.41963 0.451052,-0.85924 0.687414,-1.25889 m 3.5233,-5.24139 -7.630978,-6.17457 c -0.406832,0.49956 -0.803052,1.03909 -1.1899836,1.55863 l 7.9442816,5.76693 c 0.285668,-0.37967 0.577526,-0.77932 0.87668,-1.139 m -8.253607,19.10918 -9.7007356,-1.53864 c -0.094854,0.63943 -0.176882,1.29885 -0.246973,1.93829 l 9.7666236,1.0191 c 0.05196,-0.47957 0.11254,-0.95915 0.18108,-1.43873 m 35.21796,-34.086 -1.02636,-9.75942 c -0.65248,0 -1.30186,0.19983 -1.9466,0.25978 l 1.53646,9.69347 c 0.47604,0 0.9554,-0.19983 1.43652,-0.19983 m 18.587806,2.26401 3.51976,-9.15994 c -0.61158,-0.23979 -1.22846,-0.43961 -1.85086,-0.65942 l -3.0351,9.33179 c 0.45902,0.19982 0.91448,0.31972 1.3662,0.47958 m -51.7327,23.67916 -9.169421,-3.51691 c -0.227738,0.61946 -0.443094,1.21893 -0.647394,1.83839 l 9.340777,3.03333 c 0.15102,-0.4596 0.309104,-0.91919 0.476038,-1.35881 m -0.68078,1.99824 -9.340998,-3.03133 c -0.19502,0.61946 -0.3760986,1.23891 -0.5474546,1.87835 l 9.4869276,2.53976 c 0.12648,-0.45959 0.258692,-0.91919 0.401526,-1.37878 m 54.371347,-24.88011 3.994914,-8.96611 c -0.59854,-0.25977 -1.20236,-0.51954 -1.81306,-0.73935 l -3.519982,9.15994 c 0.45062,0.19983 0.89592,0.35968 1.33812,0.55951 m -55.407878,28.95852 -9.6080922,-2.04021 c -0.128462,0.63944 -0.2429936,1.27888 -0.3469128,1.91831 l 9.699851,1.53865 c 0.07694,-0.47958 0.16162,-0.93917 0.255154,-1.41875 m 0.46432,-2.0522 -9.4889174,-2.53976 c -0.161848,0.63944 -0.3084406,1.25889 -0.4461886,1.89833 l 9.606545,2.0402 c 0.10192,-0.47958 0.21027,-0.93917 0.328562,-1.39877 m 2.924547,-7.88306 -8.751092,-4.45408 c -0.291194,0.57949 -0.573544,1.17896 -0.842186,1.75845 l 8.972417,3.99049 c 0.19856,-0.43961 0.407054,-0.87923 0.620862,-1.29886 m -4.1565418,18.40784 -9.81968867,0 c 0.00772981,0.6594 0.02410046,1.2988 0.05682386,1.9583 l 9.80642241,-0.5196 c -0.02388,-0.4796 -0.03648,-0.9591 -0.04356,-1.4387 m 3.2699142,-16.49752 -8.9726384,-3.99049 c -0.259576,0.59948 -0.508982,1.19895 -0.746006,1.8184 L 12.54702,987.795 c 0.17512,-0.4596 0.358632,-0.89921 0.549224,-1.33882 m 48.95075,-22.41028 3.03488,-9.33179 c -0.62242,-0.19982 -1.25078,-0.37967 -1.88358,-0.55951 l -2.542046,9.47966 c 0.46698,0.19982 0.93062,0.25977 1.39074,0.39965 m -44.822283,15.08073 -7.9447242,-5.76693 c -0.379194,0.53953 -0.746228,1.07905 -1.10508,1.61858 l 8.2361392,5.34529 c 0.264884,-0.39964 0.534852,-0.79929 0.813664,-1.19894 m 19.997128,-14.84294 -3.03488,-9.33179 c -0.62218,0.19983 -1.23818,0.41963 -1.84932,0.65942 l 3.519764,9.16194 c 0.45128,-0.19982 0.90564,-0.3397 1.36444,-0.47958 m 10.338402,-1.99824 -0.51406,-9.79738 c -0.65558,0 -1.30806,0 -1.95678,0.19983 l 1.02658,9.75941 c 0.47892,0 0.96048,0 1.44426,-0.19983 m -12.322376,2.72161 -3.520204,-9.16194 c -0.61024,0.23979 -1.21298,0.49956 -1.81106,0.75933 l 3.994914,8.96412 c 0.44176,-0.19983 0.8864,-0.37967 1.33636,-0.55951 m 14.393014,-2.79354 0,-9.81137 c -0.64364,0.006 -1.2844,0 -1.92228,0 l 0.51406,9.79938 c 0.4672,-0.02 0.93682,0 1.40822,0 m -6.2661,0.53952 -1.53646,-9.69347 c -0.64762,0.19983 -1.29192,0.21981 -1.9309,0.35969 l 2.04212,9.59955 c 0.47184,0 0.94744,-0.19983 1.42524,-0.25977 m -10.069106,3.07529 -3.995356,-8.96611 c -0.59632,0.27975 -1.18556,0.55951 -1.76906,0.85924 l 4.459014,8.74431 c 0.43094,-0.21981 0.86584,-0.41963 1.3054,-0.61946 M 9.8539678,1000.7077 0.04732439,1000.1881 C 0.01857277,1000.8675 8.84418e-4,1001.5549 0,1002.2463 l 9.8196886,0 c 8.8e-4,-0.5195 0.01392,-1.0391 0.03428,-1.5386 M 39.241834,963.63426 36.699798,954.1546 c -0.63236,0.19983 -1.25986,0.35969 -1.88204,0.55951 l 3.035102,9.33379 c 0.45946,-0.19983 0.92268,-0.27976 1.38898,-0.41963 m 2.049418,-0.49956 -2.0419,-9.59756 c -0.64098,0.19983 -1.27798,0.27976 -1.90946,0.4596 l 2.542038,9.47766 c 0.46632,-0.19983 0.9366,-0.23979 1.40932,-0.3397 m 12.487534,-0.77932 1.02658,-9.75741 c -0.64894,0 -1.3012,-0.19983 -1.95722,-0.19983 l -0.51384,9.79938 c 0.48378,0 0.96534,0 1.44448,0.19982 m -29.3965,9.04005 -6.180753,-7.62529 c -0.504338,0.41963 -0.998286,0.83926 -1.485822,1.27887 l 6.570559,7.28959 c 0.36018,-0.31972 0.72456,-0.63944 1.09602,-0.93917 m 31.49323,-8.79027 1.53668,-9.69147 c -0.64496,0 -1.29412,-0.19982 -1.94704,-0.25977 l -1.02658,9.75941 c 0.48156,0 0.96092,0.19982 1.43696,0.19982 M 9.9914868,998.65944 0.224642,997.64034 c -0.0608036,0.63943 -0.110331,1.29885 -0.146371,1.95827 l 9.8064224,0.51959 c 0.02698,-0.47962 0.06324,-0.9592 0.1068,-1.43878 m 12.8026026,-25.82727 -6.571002,-7.29158 c -0.481786,0.43961 -0.95495,0.8992 -1.419048,1.3588 l 6.943564,6.93789 c 0.34294,-0.3397 0.69184,-0.6794 1.04648,-0.99912 m 4.974414,-3.90256 -5.348516,-8.23076 c -0.54546,0.35968 -1.08364,0.73935 -1.61406,1.11902 l 5.772152,7.93701 c 0.39158,-0.27975 0.78846,-0.55951 1.19042,-0.81928 m -6.487864,5.36928 -6.943784,-6.9379 c -0.457908,0.4596 -0.909182,0.93918 -1.348736,1.41875 l 7.297994,6.56423 c 0.32458,-0.35969 0.65734,-0.69939 0.99452,-1.05907 m 30.391246,-12.03541 0.51384,-9.79938 c -0.62772,0 -1.25808,0 -1.89154,0 l 0,9.81137 c 0.46122,0.004 0.92024,0.014 1.3777,0 m -22.11575,5.54312 -4.910508,-8.49852 c -0.56382,0.3397 -1.1221,0.6794 -1.67154,1.0191 l 5.348516,8.22876 c 0.40572,-0.25977 0.81786,-0.51954 1.23354,-0.75933 m -3.514014,2.33395 -5.77193,-7.93702 c -0.525786,0.39965 -1.042508,0.7993 -1.552154,1.19895 l 6.179648,7.62329 c 0.37632,-0.29974 0.75706,-0.59947 1.14444,-0.87923 m 5.35802,-3.36104 -4.459234,-8.74231 c -0.58084,0.29974 -1.15572,0.61946 -1.72284,0.93918 l 4.91095,8.49852 c 0.41878,-0.23979 0.84308,-0.47958 1.27114,-0.69939 m -20.993423,42.46063 -9.6998508,1.5387 c 0.109004,0.6394 0.2295062,1.2788 0.3628322,1.9183 l 9.6065446,-2.0402 c -0.09818,-0.4596 -0.18772,-0.9392 -0.269526,-1.4188 m 60.001991,27.7216 4.910286,8.4986 c 0.56028,-0.3198 1.11526,-0.6595 1.66116,-1.0191 l -5.348976,-8.2308 c -0.40218,0.2598 -0.81078,0.4996 -1.22248,0.7593 m -9.618262,4.0924 2.542038,9.4797 c 0.62728,-0.1998 1.24946,-0.3597 1.86656,-0.5595 l -3.03488,-9.3318 c -0.4546,0.1998 -0.91228,0.2797 -1.37372,0.3996 m -8.253608,1.3788 0.51384,9.7974 c 0.65004,0 1.29744,0 1.94064,-0.1998 l -1.0266,-9.7574 c -0.4736,0 -0.94986,0 -1.4279,0.1998 m 4.162514,-0.4796 1.53624,9.6915 c 0.6423,-0.1998 1.28108,-0.2198 1.91476,-0.3597 l -2.041886,-9.5976 c -0.4663,0 -0.93682,0.1999 -1.4091,0.2598 m -2.075288,0.2998 1.02658,9.7574 c 0.64718,0 1.29126,-0.1999 1.93046,-0.2598 l -1.53646,-9.6915 c -0.47074,0 -0.94456,0.1998 -1.4206,0.1998 m 13.952154,-4.2742 4.45901,8.7423 c 0.57664,-0.2997 1.14732,-0.6194 1.7109,-0.9192 l -4.910942,-8.4985 c -0.41502,0.2398 -0.8349,0.4596 -1.25896,0.6794 m -5.781218,2.4618 3.035102,9.3318 c 0.61732,-0.1998 1.22846,-0.4196 1.83472,-0.6594 l -3.519986,-9.1599 c -0.44642,0.1998 -0.89592,0.3397 -1.34984,0.4795 m 1.96982,-0.7193 3.519762,9.1599 c 0.6056,-0.2398 1.20392,-0.4995 1.79714,-0.7593 l -3.99448,-8.9641 c -0.43756,0.1998 -0.87734,0.3796 -1.32242,0.5595 m 1.92826,-0.8193 3.995354,8.9661 c 0.59168,-0.2797 1.17672,-0.5595 1.75602,-0.8392 l -4.458812,-8.7424 c -0.42674,0.2199 -0.85722,0.4197 -1.29258,0.6195 m -7.936322,2.6597 2.041898,9.5995 c 0.63546,-0.1998 1.26716,-0.2997 1.89354,-0.4596 l -2.542034,-9.4776 c -0.46122,0.1998 -0.92598,0.2397 -1.3934,0.3397 m -20.709304,-0.8393 -3.0351,9.3318 c 0.61776,0.1998 1.24172,0.3796 1.86988,0.5395 l 2.541816,-9.4796 c -0.46188,-0.1999 -0.92156,-0.2598 -1.3766,-0.3997 m -3.931016,-1.4587 -3.994916,8.9641 c 0.59478,0.2598 1.19508,0.4996 1.80156,0.7393 l 3.519762,-9.1619 c -0.44618,-0.1998 -0.88796,-0.3597 -1.3264,-0.5395 m 1.9466,0.7793 -3.519984,9.1599 c 0.60716,0.2198 1.22028,0.4397 1.83826,0.6395 l 3.035102,-9.3318 c -0.45482,-0.1998 -0.9063,-0.2997 -1.35338,-0.4796 m -3.84943,-1.6585 -4.459012,8.7423 c 0.58062,0.2797 1.16632,0.5795 1.75932,0.8392 l 3.994914,-8.9641 c -0.43624,-0.1998 -0.8674,-0.3996 -1.29524,-0.6194 m 9.896194,3.365 -2.042342,9.5996 c 0.63412,0.1998 1.27334,0.2398 1.9161,0.3397 l 1.53646,-9.6915 c -0.47294,0 -0.94324,-0.1998 -1.4102,-0.2598 m 8.405506,0.7793 0,9.8114 c 0.62706,-0.01 1.25168,0 1.87298,0 l -0.51384,-9.7974 c -0.45084,0 -0.90432,0 -1.35912,0 m -2.167708,0 -0.51406,9.7974 c 0.66972,0 1.34232,0 2.018462,0 l 0,-9.8114 c -0.5039,0 -1.00514,-0.014 -1.5044,0 m -2.090984,-0.1998 -1.02658,9.7594 c 0.64364,0 1.29058,0.1998 1.94086,0.1998 l 0.51406,-9.7973 c -0.47846,0 -0.9545,0 -1.42834,-0.1999 m -2.081256,-0.2397 -1.53646,9.6934 c 0.63988,0 1.28374,0.1998 1.93134,0.2398 l 1.02636,-9.7594 c -0.47626,0 -0.95008,-0.1998 -1.42126,-0.1998 m -4.110332,-0.8193 -2.54248,9.4817 c 0.62684,0.1998 1.25986,0.2997 1.89598,0.4396 l 2.041898,-9.5976 c -0.46808,-0.1998 -0.93372,-0.2198 -1.3954,-0.3197 m 48.250288,-26.7784 9.341,3.0313 c 0.197,-0.6195 0.38162,-1.2389 0.55498,-1.8784 l -9.48671,-2.5397 c -0.1286,0.4596 -0.26466,0.9192 -0.40926,1.3788 m 0.58238,-2.0183 9.486706,2.5398 c 0.1638,-0.6194 0.3142,-1.2589 0.45392,-1.8983 l -9.606312,-2.0402 c -0.104,0.4796 -0.21424,0.9391 -0.33432,1.3987 m -1.2698,4.0005 9.16942,3.5169 c 0.22928,-0.5994 0.44796,-1.2189 0.65424,-1.8384 l -9.341202,-3.0333 c -0.1524,0.4596 -0.3142,0.8992 -0.48246,1.3588 m -0.79044,1.9383 8.972418,3.9905 c 0.2609,-0.5995 0.5134,-1.1989 0.75154,-1.7984 l -9.169648,-3.5169 c -0.176,0.4396 -0.36262,0.8792 -0.55432,1.3188 m 3.341552,-15.6842 c -0.0044,0.4396 -0.01658,0.9592 -0.038,1.4388 l 9.806866,0.5195 c 0.0296,-0.6394 0.0462,-1.2789 0.0508,-1.9583 l -9.81969,0 z m -4.232822,17.5845 8.75109,4.4541 c 0.29208,-0.5795 0.57466,-1.159 0.8444,-1.7584 l -8.973736,-3.9925 c -0.1992,0.4396 -0.40728,0.8592 -0.62174,1.2988 m 3.791056,-11.9634 9.700956,1.5386 c 0.0968,-0.6394 0.1788,-1.2789 0.2514,-1.9383 l -9.766404,-1.0191 c -0.0542,0.4796 -0.1152,0.9592 -0.186,1.4188 m -0.36504,2.0702 9.60743,2.0402 c 0.1304,-0.6395 0.24586,-1.2789 0.352,-1.9184 l -9.699852,-1.5386 c -0.079,0.4796 -0.1638,0.9392 -0.25958,1.4187 m 0.62152,-4.1543 9.766846,1.0191 c 0.0634,-0.6394 0.113,-1.2988 0.1512,-1.9383 l -9.806202,-0.5195 c -0.0294,0.4795 -0.0662,0.9591 -0.1118,1.4387 m -12.855894,25.6954 6.571002,7.2916 c 0.4798,-0.4396 0.94986,-0.8793 1.4122,-1.3388 l -6.943346,-6.9379 c -0.34116,0.3397 -0.6872,0.6594 -1.03986,0.9791 m -4.952076,3.8706 5.348294,8.2288 c 0.54236,-0.3597 1.07766,-0.7194 1.60478,-1.0991 l -5.771708,-7.937 c -0.38848,0.2798 -0.7827,0.5395 -1.18136,0.8193 m 3.370074,-2.4938 6.179646,7.6253 c 0.5019,-0.4197 0.99386,-0.8393 1.47918,-1.2589 l -6.57056,-7.2916 c -0.35752,0.3197 -0.71926,0.6394 -1.08828,0.9392 m -1.65276,1.2988 5.77171,7.937 c 0.52268,-0.3796 1.03742,-0.7793 1.5442,-1.1789 l -6.179636,-7.6253 c -0.37344,0.2997 -0.75198,0.5795 -1.13626,0.8792 m 4.743574,-4.1224 6.943342,6.9379 c 0.45636,-0.4596 0.90498,-0.9391 1.34298,-1.4187 l -7.297994,-6.5642 c -0.32304,0.3596 -0.65314,0.6993 -0.98834,1.039 m 4.049086,-4.8097 7.944502,5.7669 c 0.37876,-0.5195 0.74666,-1.0591 1.10552,-1.5986 l -8.23614,-5.3433 c -0.26466,0.3997 -0.5353,0.7993 -0.81388,1.179 m -2.617656,3.2771 7.29733,6.5642 c 0.4316,-0.4796 0.8559,-0.9791 1.26892,-1.4787 l -7.631186,-6.1746 c -0.30446,0.3797 -0.61754,0.7394 -0.93506,1.0991 m 3.795478,-5.0116 8.236582,5.3433 c 0.35112,-0.5395 0.68918,-1.099 1.01908,-1.6586 l -8.505224,-4.9056 c -0.24388,0.4196 -0.49262,0.8192 -0.75042,1.2189 m 1.08386,-1.7984 8.505666,4.9077 c 0.32192,-0.5596 0.63236,-1.139 0.93262,-1.7185 l -8.751328,-4.4561 c -0.222,0.4196 -0.45062,0.8393 -0.68698,1.2589 m -3.528164,5.2054 7.630978,6.1746 c 0.40594,-0.4996 0.8026,-1.0191 1.18888,-1.5387 l -7.94406,-5.7669 c -0.28522,0.3797 -0.57752,0.7593 -0.8758,1.139 m 6.70456,-37.70285 9.340998,-3.03333 c -0.20584,-0.61945 -0.42364,-1.23891 -0.6527,-1.83838 l -9.169422,3.51491 c 0.1682,0.43961 0.32878,0.8992 0.48112,1.3588 m -1.53866,-3.91855 8.973744,-3.99049 c -0.26996,-0.59947 -0.55386,-1.17896 -0.84594,-1.75845 l -8.751312,4.45608 c 0.2147,0.43961 0.42386,0.85924 0.62352,1.29885 m -3.06318,-5.52114 8.23614,-5.3433 c -0.35996,-0.53952 -0.72876,-1.07905 -1.10928,-1.61857 l -7.944282,5.76692 c 0.27992,0.37967 0.55144,0.77932 0.81742,1.17897 m 3.885246,7.45943 9.16898,-3.5169 c -0.2379,-0.59948 -0.48952,-1.21893 -0.75066,-1.79842 l -8.97264,3.99249 c 0.1916,0.43961 0.37786,0.87922 0.5543,1.33882 m -2.768218,-5.67301 8.505444,-4.90568 c -0.331,-0.55951 -0.66972,-1.11902 -1.02172,-1.67853 l -8.237466,5.3453 c 0.25892,0.39965 0.5092,0.81928 0.75374,1.23891 m 1.02194,1.83838 8.751312,-4.45408 c -0.3007,-0.57949 -0.61224,-1.15898 -0.93506,-1.71849 l -8.505886,4.90569 c 0.23724,0.41963 0.4672,0.83926 0.68962,1.25889 m 3.975236,11.9335 9.69963,-1.53865 c -0.1052,-0.63944 -0.21978,-1.27887 -0.34934,-1.91831 l -9.608094,2.0422 c 0.0946,0.4596 0.1796,0.93918 0.2578,1.41875 m -0.3962,-2.06618 9.606322,-2.0402 c -0.139,-0.63944 -0.28766,-1.27888 -0.45084,-1.89833 l -9.48692,2.4938 c 0.1196,0.4596 0.22818,0.93918 0.33144,1.39877 m -0.50456,-2.0422 9.486708,-2.53977 c -0.1724,-0.63943 -0.3562,-1.25889 -0.55232,-1.87834 l -9.340998,3.03133 c 0.144,0.4596 0.2786,0.91919 0.40662,1.37879 m -20.82981,-25.26977 4.45901,-8.7443 c -0.58438,-0.29974 -1.1734,-0.57949 -1.77016,-0.83926 l -3.995576,8.96611 c 0.44022,0.19982 0.8749,0.39965 1.30672,0.61945 m 8.719914,5.88482 6.570338,-7.28958 c -0.48842,-0.43961 -0.9837,-0.85925 -1.48914,-1.27888 l -6.179426,7.6233 c 0.37234,0.29973 0.73716,0.61945 1.09822,0.93917 m -3.2982,-2.62769 5.77193,-7.93701 c -0.5311,-0.37967 -1.07058,-0.73935 -1.61694,-1.09904 l -5.348516,8.22876 c 0.40264,0.25977 0.80128,0.53953 1.19352,0.81928 m 1.68326,1.27888 6.179646,-7.6233 c -0.5103,-0.39964 -1.0288,-0.79929 -1.55524,-1.19894 l -5.77171,7.93901 c 0.38804,0.27976 0.77032,0.57949 1.14732,0.87923 m -5.241278,-3.53689 4.910726,-8.49852 c -0.5678,-0.31972 -1.14266,-0.63944 -1.72418,-0.93917 l -4.45901,8.7443 c 0.42894,0.21981 0.85302,0.4596 1.27246,0.69939 m 1.8093,1.07905 5.3494,-8.22876 c -0.5501,-0.35969 -1.1095,-0.69939 -1.67398,-1.01911 l -4.910508,8.49853 c 0.41634,0.23978 0.8287,0.49956 1.23508,0.75933 m 10.735284,10.01518 7.94406,-5.76692 c -0.38804,-0.51954 -0.78602,-1.03909 -1.19396,-1.55863 l -7.631198,6.17257 c 0.30048,0.37966 0.59432,0.75933 0.8811,1.139 m 7.60953,19.37095 9.766182,-1.0191 c -0.0712,-0.63944 -0.1534,-1.29886 -0.24918,-1.9383 l -9.700956,1.53865 c 0.0698,0.47958 0.1306,0.95915 0.184,1.43873 m -8.906574,-21.03349 7.631198,-6.17456 c -0.41502,-0.49956 -0.8413,-0.99913 -1.27532,-1.4787 l -7.296888,6.56422 c 0.3195,0.35968 0.63456,0.71937 0.94102,1.09903 m -2.84916,-3.10526 6.943342,-6.9379 c -0.4652,-0.45959 -0.93792,-0.89921 -1.42082,-1.33882 l -6.57122,7.29158 c 0.35598,0.31972 0.70488,0.65942 1.0487,0.99912 m 1.46526,1.51867 7.297552,-6.56622 c -0.44044,-0.47958 -0.8915,-0.95916 -1.3505,-1.41876 l -6.943352,6.9359 c 0.33784,0.3397 0.6706,0.69938 0.9963,1.05907 m -64.152566,47.67407 -8.505224,4.9077 c 0.33232,0.5595 0.674368,1.119 1.027914,1.6585 l 8.235918,-5.3453 c -0.260018,-0.3996 -0.51274,-0.7993 -0.75861,-1.2189 m 6.491848,8.2028 -6.943564,6.9379 c 0.46432,0.4596 0.935714,0.8992 1.41728,1.3388 l 6.570562,-7.2896 c -0.35444,-0.3197 -0.70156,-0.6594 -1.04428,-0.9791 m -1.46526,-1.4987 -7.297773,6.5662 c 0.440218,0.4796 0.888398,0.9392 1.346748,1.3988 l 6.943567,-6.9379 c -0.33718,-0.3397 -0.6673,-0.6794 -0.99254,-1.0391 m -1.385882,-1.5786 -7.632746,6.1766 c 0.415012,0.4995 0.84064,0.9991 1.274446,1.4786 l 7.297332,-6.5642 c -0.319274,-0.3597 -0.63258,-0.7193 -0.93903,-1.079 m -1.30319,-1.6386 -7.9451668,5.7669 c 0.3887018,0.5196 0.7891218,1.0391 1.1972798,1.5387 l 7.630978,-6.1726 c -0.30026,-0.3796 -0.595876,-0.7393 -0.883092,-1.139 m 8.986349,8.7363 -5.773258,7.939 c 0.52866,0.3797 1.06704,0.7394 1.61074,1.0991 l 5.348516,-8.2288 c -0.39998,-0.2597 -0.79598,-0.5195 -1.186,-0.7993 m -3.291582,-2.5957 -6.570561,7.2896 c 0.487314,0.4396 0.982368,0.8592 1.486044,1.2589 l 6.179427,-7.6253 c -0.37034,-0.2997 -0.7354,-0.6195 -1.0949,-0.9192 m 5.03499,3.7607 -5.3494,8.2288 c 0.54746,0.3397 1.10264,0.6794 1.66426,1.0191 l 4.910508,-8.4986 c -0.41302,-0.2398 -0.82162,-0.4795 -1.22536,-0.7393 m -11.944078,-11.6138 -8.2359184,5.3453 c 0.360842,0.5395 0.732962,1.0791 1.114146,1.5986 l 7.9442814,-5.7669 c -0.280582,-0.3797 -0.555414,-0.7793 -0.822508,-1.179 m 8.520703,9.1939 -6.179648,7.6253 c 0.50854,0.3997 1.026146,0.7993 1.550606,1.179 l 5.77171,-7.939 c -0.38582,-0.2798 -0.76746,-0.5595 -1.14266,-0.8593 m 65.046034,-31.824 9.81969,0 c -0.0038,-0.6594 -0.0204,-1.2988 -0.0488,-1.9583 l -9.806644,0.5196 c 0.0202,0.4796 0.0322,0.9991 0.0358,1.4387 m -79.362999,9.2139 -9.6065444,2.0402 c 0.142834,0.6395 0.2980488,1.2589 0.4647616,1.8983 l 9.4867058,-2.5397 c -0.12272,-0.4596 -0.23835,-0.9192 -0.344922,-1.3988 m -0.9063078,-6.2305 -9.8064224,0.5195 c 0.0415676,0.6595 0.0919794,1.2989 0.1580896,1.9383 l 9.7664026,-1.0191 c -0.04864,-0.4795 -0.08624,-0.9591 -0.11806,-1.4387 m 80.2001,-5.0835 9.806424,-0.51959 c -0.0374,-0.65942 -0.0868,-1.29886 -0.149,-1.95828 l -9.767066,1.0191 c 0.0448,0.47958 0.0816,0.95916 0.1096,1.43874 m -59.75214,37.41513 -4.910952,8.4985 c 0.56492,0.3197 1.13514,0.6194 1.71356,0.9192 l 4.459012,-8.7443 c -0.4254,-0.2198 -0.84528,-0.4396 -1.26162,-0.6794 m -20.254507,-30.2394 -9.7664028,1.0191 c 0.075176,0.6394 0.160522,1.2988 0.2604604,1.9383 l 9.6998504,-1.5387 c -0.0734,-0.4796 -0.13708,-0.9391 -0.1939,-1.4187 m 4.3562,13.9537 -8.7515344,4.4561 c 0.302914,0.5795 0.614006,1.139 0.938368,1.6985 l 8.5054444,-4.9057 c -0.238792,-0.4196 -0.468078,-0.8393 -0.692278,-1.2589 m -0.93306,-1.8783 -8.9737438,3.9924 c 0.27218,0.5995 0.55453,1.179 0.849042,1.7585 l 8.7510918,-4.4561 c -0.216682,-0.4196 -0.424742,-0.8592 -0.626388,-1.2988 m -1.56542,-3.8946 -9.3432092,3.0333 c 0.208944,0.6195 0.432258,1.2189 0.664418,1.8384 l 9.1694212,-3.5169 c -0.17092,-0.4396 -0.335636,-0.8992 -0.49063,-1.3588 m -0.62661,-2.0042 -9.486706,2.5397 c 0.176,0.6195 0.3654856,1.2389 0.565143,1.8584 l 9.341219,-3.0313 c -0.14726,-0.4596 -0.288762,-0.9192 -0.419656,-1.3788 m 1.917638,5.2953 -8.9724168,3.9925 c -0.263778,-0.5995 -0.517384,-1.199 -0.758388,-1.7984 l 9.1714108,-3.5169 c 0.17866,0.4396 0.365264,0.8792 0.559394,1.3188" />
  </g>
</svg>
